<svg id="visual" viewBox="0 0 960 540" width="960" height="540" xmlns="http://www.w3.org/2000/svg" xmlns:xlink="http://www.w3.org/1999/xlink" version="1.1"><path d="M0 98L14.5 104.3C29 110.7 58 123.3 87.2 117C116.3 110.7 145.7 85.3 174.8 81.7C204 78 233 96 262 111.3C291 126.7 320 139.3 349 134C378 128.7 407 105.3 436.2 95.5C465.3 85.7 494.7 89.3 523.8 102C553 114.7 582 136.3 611 132.7C640 129 669 100 698 95.5C727 91 756 111 785.2 126.3C814.3 141.7 843.7 152.3 872.8 153.2C902 154 931 145 945.5 140.5L960 136L960 0L945.5 0C931 0 902 0 872.8 0C843.7 0 814.3 0 785.2 0C756 0 727 0 698 0C669 0 640 0 611 0C582 0 553 0 523.8 0C494.7 0 465.3 0 436.2 0C407 0 378 0 349 0C320 0 291 0 262 0C233 0 204 0 174.8 0C145.7 0 116.3 0 87.2 0C58 0 29 0 14.5 0L0 0Z" fill="#0b2b5c"></path><path d="M0 174L14.5 175.8C29 177.7 58 181.3 87.2 176.8C116.3 172.3 145.7 159.7 174.8 156.8C204 154 233 161 262 172.7C291 184.3 320 200.7 349 199.8C378 199 407 181 436.2 167.5C465.3 154 494.7 145 523.8 151.3C553 157.7 582 179.3 611 179.3C640 179.3 669 157.7 698 153.2C727 148.7 756 161.3 785.2 173C814.3 184.7 843.7 195.3 872.8 194.3C902 193.3 931 180.7 945.5 174.3L960 168L960 134L945.5 138.5C931 143 902 152 872.8 151.2C843.7 150.3 814.3 139.7 785.2 124.3C756 109 727 89 698 93.5C669 98 640 127 611 130.7C582 134.3 553 112.7 523.8 100C494.7 87.3 465.3 83.7 436.2 93.5C407 103.3 378 126.7 349 132C320 137.3 291 124.7 262 109.3C233 94 204 76 174.8 79.7C145.7 83.3 116.3 108.7 87.2 115C58 121.3 29 108.7 14.5 102.3L0 96Z" fill="#0b2556"></path><path d="M0 271L14.5 265.7C29 260.3 58 249.7 87.2 246C116.3 242.3 145.7 245.7 174.8 247.3C204 249 233 249 262 250C291 251 320 253 349 245.8C378 238.7 407 222.3 436.2 220.5C465.3 218.7 494.7 231.3 523.8 241.3C553 251.3 582 258.7 611 254.2C640 249.7 669 233.3 698 229.7C727 226 756 235 785.2 239.5C814.3 244 843.7 244 872.8 248.5C902 253 931 262 945.5 266.5L960 271L960 166L945.5 172.3C931 178.7 902 191.3 872.8 192.3C843.7 193.3 814.3 182.7 785.2 171C756 159.3 727 146.7 698 151.2C669 155.7 640 177.3 611 177.3C582 177.3 553 155.7 523.8 149.3C494.7 143 465.3 152 436.2 165.5C407 179 378 197 349 197.8C320 198.7 291 182.3 262 170.7C233 159 204 152 174.8 154.8C145.7 157.7 116.3 170.3 87.2 174.8C58 179.3 29 175.7 14.5 173.8L0 172Z" fill="#0b2050"></path><path d="M0 379L14.5 384.3C29 389.7 58 400.3 87.2 395.8C116.3 391.3 145.7 371.7 174.8 370.8C204 370 233 388 262 400.7C291 413.3 320 420.7 349 406.3C378 392 407 356 436.2 338C465.3 320 494.7 320 523.8 321.7C553 323.3 582 326.7 611 349.2C640 371.7 669 413.3 698 423.3C727 433.3 756 411.7 785.2 403.5C814.3 395.3 843.7 400.7 872.8 403.3C902 406 931 406 945.5 406L960 406L960 269L945.5 264.5C931 260 902 251 872.8 246.5C843.7 242 814.3 242 785.2 237.5C756 233 727 224 698 227.7C669 231.3 640 247.7 611 252.2C582 256.7 553 249.3 523.8 239.3C494.7 229.3 465.3 216.7 436.2 218.5C407 220.3 378 236.7 349 243.8C320 251 291 249 262 248C233 247 204 247 174.8 245.3C145.7 243.7 116.3 240.3 87.2 244C58 247.7 29 258.3 14.5 263.7L0 269Z" fill="#0b1a4a"></path><path d="M0 541L14.5 541C29 541 58 541 87.2 541C116.3 541 145.7 541 174.8 541C204 541 233 541 262 541C291 541 320 541 349 541C378 541 407 541 436.2 541C465.3 541 494.7 541 523.8 541C553 541 582 541 611 541C640 541 669 541 698 541C727 541 756 541 785.2 541C814.3 541 843.7 541 872.8 541C902 541 931 541 945.5 541L960 541L960 404L945.5 404C931 404 902 404 872.8 401.3C843.7 398.7 814.3 393.3 785.2 401.5C756 409.7 727 431.3 698 421.3C669 411.3 640 369.7 611 347.2C582 324.7 553 321.3 523.8 319.7C494.7 318 465.3 318 436.2 336C407 354 378 390 349 404.3C320 418.7 291 411.3 262 398.7C233 386 204 368 174.8 368.8C145.7 369.7 116.3 389.3 87.2 393.8C58 398.3 29 387.7 14.5 382.3L0 377Z" fill="#0a1544"></path></svg>